<?xml version="1.0" encoding="UTF-8"?>
<svg xmlns="http://www.w3.org/2000/svg" viewBox="0 0 16 16" width="16" height="16" shape-rendering="crispEdges">
<rect width="16" height="16" fill="rgba(0,0,0,0.04)" rx="2"></rect>
<g fill="currentColor"><rect x="7" y="1" width="1" height="1"></rect><rect x="6" y="2" width="3" height="1"></rect><rect x="5" y="3" width="5" height="1"></rect><rect x="4" y="4" width="7" height="1"></rect><rect x="5" y="5" width="5" height="1"></rect><rect x="5" y="6" width="5" height="1"></rect><rect x="5" y="7" width="5" height="1"></rect><rect x="5" y="8" width="5" height="1"></rect><rect x="5" y="9" width="5" height="1"></rect><rect x="5" y="10" width="5" height="1"></rect><rect x="5" y="11" width="5" height="1"></rect><rect x="5" y="12" width="5" height="1"></rect><rect x="5" y="13" width="5" height="1"></rect><rect x="7" y="10" width="2" height="4"></rect></g>
</svg>