<?xml version="1.0" encoding="UTF-8"?>
<svg xmlns="http://www.w3.org/2000/svg" viewBox="0 0 16 16" width="16" height="16" shape-rendering="crispEdges">
<rect width="16" height="16" fill="rgba(0,0,0,0.04)" rx="2"></rect>
<g fill="currentColor"><rect x="3" y="3" width="3" height="1"></rect><rect x="10" y="3" width="3" height="1"></rect><rect x="2" y="4" width="5" height="1"></rect><rect x="9" y="4" width="5" height="1"></rect><rect x="1" y="5" width="6" height="1"></rect><rect x="9" y="5" width="6" height="1"></rect><rect x="1" y="6" width="14" height="1"></rect><rect x="1" y="7" width="14" height="1"></rect><rect x="4" y="8" width="8" height="1"></rect><rect x="4" y="9" width="8" height="1"></rect><rect x="4" y="10" width="8" height="1"></rect><rect x="4" y="11" width="8" height="1"></rect><rect x="4" y="12" width="8" height="1"></rect><rect x="4" y="13" width="8" height="1"></rect><rect x="4" y="14" width="8" height="1"></rect></g>
</svg>